<?xml version="1.0" encoding="UTF-8"?>
<svg width="48px" height="48px" viewBox="0 0 48 48" version="1.1" xmlns="http://www.w3.org/2000/svg" xmlns:xlink="http://www.w3.org/1999/xlink">
    <title>link</title>
    <defs>
        <filter color-interpolation-filters="auto" id="filter-1">
            <feColorMatrix in="SourceGraphic" type="matrix" values="0 0 0 0 0.192157 0 0 0 0 0.192157 0 0 0 0 0.196078 0 0 0 1.000000 0"></feColorMatrix>
        </filter>
    </defs>
    <g id="---↳-Interface" stroke="none" stroke-width="1" fill="none" fill-rule="evenodd">
        <g id="link" filter="url(#filter-1)">
            <g>
                <path d="M25.7689209,33.0942734 L18.443741,40.4196259 C18.443741,40.4196259 18.443741,40.4197986 18.4435683,40.4197986 C18.4435683,40.4197986 18.4435683,40.4199712 18.4433957,40.4199712 C15.4142158,43.4493237 10.4850647,43.4494964 7.45553957,40.4199712 C5.98791367,38.9523453 5.17985612,37.0010935 5.17985612,34.9258705 C5.17985612,32.8508201 5.98791367,30.8999137 7.45502158,29.4322878 C7.45519424,29.4321151 7.45536691,29.4319424 7.45553957,29.4317698 L14.7807194,22.1064173 C15.792,21.094964 15.792,19.4550216 14.7805468,18.443741 C13.7692662,17.4324604 12.1293237,17.4324604 11.1178705,18.443741 L3.79269065,25.7690935 C3.79217266,25.7696115 3.79165468,25.7703022 3.79113669,25.7708201 C1.34641727,28.2164029 0,31.4677986 0,34.9258705 C0,38.3848058 1.34693525,41.6367194 3.79286331,44.0826475 C6.31752518,46.6071367 9.6334964,47.8694676 12.9496403,47.8694676 C16.2657842,47.8694676 19.5819281,46.6071367 22.1062446,44.0826475 C22.1062446,44.0826475 22.1062446,44.0824748 22.1062446,44.0824748 C22.1064173,44.0824748 22.1064173,44.0823022 22.1064173,44.0823022 L29.4315971,36.7569496 C30.4428777,35.7456691 30.4428777,34.1057266 29.4314245,33.0942734 C28.4203165,32.0829928 26.7805468,32.0829928 25.7689209,33.0942734 Z" id="XMLID_106_" fill="#000000" fill-rule="nonzero"></path>
                <path d="M47.8755108,12.9496403 C47.8755108,9.49070504 46.5284029,6.23879137 44.0824748,3.79286331 C39.0333237,-1.25611511 30.8178993,-1.25594245 25.7690935,3.79286331 C25.7689209,3.79320863 25.7685755,3.79338129 25.7684029,3.79372662 L18.4433957,11.1185612 C17.4319424,12.1298417 17.4319424,13.7699568 18.4433957,14.7812374 C18.949295,15.2871367 19.6119712,15.5399137 20.2748201,15.5399137 C20.9374964,15.5399137 21.600518,15.286964 22.1060719,14.7812374 L29.4310791,7.45640288 C29.4312518,7.45605755 29.4315971,7.45588489 29.4319424,7.45553957 C32.4611223,4.42635971 37.3902734,4.42618705 40.4197986,7.45553957 C41.8872518,8.92316547 42.6956547,10.8744173 42.6956547,12.9496403 C42.6956547,15.0246906 41.8875971,16.9755971 40.4203165,18.443223 C40.4201439,18.4433957 40.4199712,18.4435683 40.4197986,18.443741 L33.0946187,25.7690935 C32.0833381,26.7803741 32.0833381,28.4203165 33.0947914,29.4317698 C33.600518,29.9374964 34.2633669,30.190446 34.9260432,30.190446 C35.5888921,30.190446 36.251741,29.9374964 36.7574676,29.4317698 L44.0826475,22.1064173 C44.0831655,22.1058993 44.0836835,22.1052086 44.0842014,22.1046906 C46.5289209,19.6591079 47.8755108,16.4077122 47.8755108,12.9496403 Z" id="XMLID_107_" fill="#000000" fill-rule="nonzero"></path>
                <path d="M14.7810647,33.0942734 C15.2867914,33.6 15.9496403,33.8529496 16.6123165,33.8529496 C17.2751655,33.8529496 17.9380144,33.6 18.443741,33.0942734 L33.094446,18.4435683 C34.1058993,17.4322878 34.1058993,15.7923453 33.094446,14.7808921 C32.0831655,13.7696115 30.443223,13.7696115 29.4317698,14.7808921 L14.7810647,29.4314245 C13.7696115,30.4430504 13.7696115,32.0829928 14.7810647,33.0942734 Z" id="XMLID_108_" fill="#000000" fill-rule="nonzero"></path>
            </g>
        </g>
    </g>
</svg>